<svg
                fill="#ff3131"
                version="1.1"
                xmlns="http://www.w3.org/2000/svg"
                viewBox="-46.3 -46.3 555.60 555.60"
                enable-background="new 0 0 463 463"
                stroke="#ff3131"
                stroke-width="0.0046300000000000004"
                transform="matrix(1, 0, 0, 1, 0, 0)rotate(0)"
              >
                <g id="SVGRepo_bgCarrier" stroke-width="0"></g>
                <g
                  id="SVGRepo_tracerCarrier"
                  stroke-linecap="round"
                  stroke-linejoin="round"
                  stroke="#da2520"
                  stroke-width="6.482000000000001"
                >
                  {" "}
                  <g>
                    {" "}
                    <path d="m415,247.493l-.004-4.024c-0.01-9.833-4.708-19.233-12.567-25.144l-27.429-20.627v-182.198c0-8.547-6.953-15.5-15.5-15.5h-256c-8.547,0-15.5,6.953-15.5,15.5v182.198l-27.429,20.627c-7.859,5.911-12.557,15.31-12.567,25.144l-.004,4.024c0,0.001 0,0.002 0,0.004s0,0.002 0,0.004v192c0,12.958 10.542,23.5 23.5,23.5h320c12.958,0 23.5-10.542 23.5-23.5v-192c0-0.001 0-0.002 0-0.004s0-0.003 0-0.004zm-21.587-17.18c0.954,0.717 1.814,1.536 2.58,2.429l-20.993,15.996v-32.271l18.413,13.846zm-289.913-215.313h256c0.276,0 0.5,0.224 0.5,0.5v244.666l-13.047,9.941c-3.295,2.51-3.931,7.216-1.42,10.511 1.476,1.937 3.71,2.955 5.971,2.955 1.584,0 3.182-0.5 4.54-1.535l43.956-33.49v189.904l-83.967-63.974c-3.294-2.51-8-1.875-10.511,1.42-2.51,3.295-1.875,8.001 1.42,10.511l80.839,61.591h-312.562l131.736-100.37c14.452-11.011 34.639-11.01 49.089,0l26.948,20.532c3.294,2.51 8,1.875 10.511-1.42 2.51-3.295 1.875-8.001-1.42-10.511l-16.708-12.73 16.668-12.699c3.294-2.51 3.931-7.216 1.42-10.511-2.51-3.294-7.215-3.93-10.511-1.42l-20.013,15.248c-18.874-12.972-44.006-12.972-62.879,0l-52.005-39.623c-3.294-2.51-8-1.875-10.511,1.42-2.51,3.295-1.875,8.001 1.42,10.511l48.66,37.074-124.624,94.951v-189.904l51.961,39.59c1.358,1.035 2.955,1.535 4.54,1.535 2.26,0 4.495-1.018 5.971-2.955 2.51-3.295 1.875-8.001-1.42-10.511l-21.052-16.041v-244.666c0-0.276 0.224-0.5 0.5-0.5zm-33.913,215.313l18.413-13.847v32.271l-20.993-15.995c0.766-0.893 1.626-1.711 2.58-2.429z"></path>{" "}
                    <path d="m305.534,311.093c1.476,1.937 3.71,2.955 5.971,2.955 1.584,0 3.182-0.5 4.54-1.535l16.002-12.192c3.295-2.51 3.931-7.216 1.42-10.511-2.51-3.294-7.215-3.93-10.511-1.42l-16.002,12.192c-3.294,2.51-3.93,7.216-1.42,10.511z"></path>{" "}
                    <path d="m171.5,263c19.907,0 35.5-12.08 35.5-27.5 0-0.85-0.055-1.688-0.148-2.516 0.096-0.48 0.148-0.976 0.148-1.484v-82.343l97-27.714v59.476c-5.756-3.107-12.802-4.919-20.5-4.919-19.907,0-35.5,12.08-35.5,27.5s15.593,27.5 35.5,27.5 35.5-12.08 35.5-27.5c0-0.85-0.055-1.688-0.148-2.516 0.096-0.48 0.148-0.976 0.148-1.484v-98.788c0-7.441-3.407-14.28-9.348-18.761-5.941-4.481-13.45-5.88-20.608-3.835l-74.198,21.2c-13.451,3.843-22.846,16.298-22.846,30.288v83.316c-5.756-3.107-12.802-4.919-20.5-4.919-19.907,0-35.5,12.08-35.5,27.5s15.593,27.499 35.5,27.499zm112-47c-9.696,0-20.5-5.134-20.5-12.5s10.804-12.5 20.5-12.5 20.5,5.134 20.5,12.5-10.804,12.5-20.5,12.5zm-64.533-102.262l74.197-21.2c2.586-0.738 5.305-0.234 7.454,1.387s3.382,4.095 3.382,6.787v5.131l-97,27.714v-3.953c0-7.329 4.921-13.853 11.967-15.866zm-47.467,109.262c9.696,0 20.5,5.134 20.5,12.5s-10.804,12.5-20.5,12.5-20.5-5.134-20.5-12.5 10.804-12.5 20.5-12.5z"></path>{" "}
                  </g>{" "}
                </g>
                <g id="SVGRepo_iconCarrier">
                  {" "}
                  <g>
                    {" "}
                    <path d="m415,247.493l-.004-4.024c-0.01-9.833-4.708-19.233-12.567-25.144l-27.429-20.627v-182.198c0-8.547-6.953-15.5-15.5-15.5h-256c-8.547,0-15.5,6.953-15.5,15.5v182.198l-27.429,20.627c-7.859,5.911-12.557,15.31-12.567,25.144l-.004,4.024c0,0.001 0,0.002 0,0.004s0,0.002 0,0.004v192c0,12.958 10.542,23.5 23.5,23.5h320c12.958,0 23.5-10.542 23.5-23.5v-192c0-0.001 0-0.002 0-0.004s0-0.003 0-0.004zm-21.587-17.18c0.954,0.717 1.814,1.536 2.58,2.429l-20.993,15.996v-32.271l18.413,13.846zm-289.913-215.313h256c0.276,0 0.5,0.224 0.5,0.5v244.666l-13.047,9.941c-3.295,2.51-3.931,7.216-1.42,10.511 1.476,1.937 3.71,2.955 5.971,2.955 1.584,0 3.182-0.5 4.54-1.535l43.956-33.49v189.904l-83.967-63.974c-3.294-2.51-8-1.875-10.511,1.42-2.51,3.295-1.875,8.001 1.42,10.511l80.839,61.591h-312.562l131.736-100.37c14.452-11.011 34.639-11.01 49.089,0l26.948,20.532c3.294,2.51 8,1.875 10.511-1.42 2.51-3.295 1.875-8.001-1.42-10.511l-16.708-12.73 16.668-12.699c3.294-2.51 3.931-7.216 1.42-10.511-2.51-3.294-7.215-3.93-10.511-1.42l-20.013,15.248c-18.874-12.972-44.006-12.972-62.879,0l-52.005-39.623c-3.294-2.51-8-1.875-10.511,1.42-2.51,3.295-1.875,8.001 1.42,10.511l48.66,37.074-124.624,94.951v-189.904l51.961,39.59c1.358,1.035 2.955,1.535 4.54,1.535 2.26,0 4.495-1.018 5.971-2.955 2.51-3.295 1.875-8.001-1.42-10.511l-21.052-16.041v-244.666c0-0.276 0.224-0.5 0.5-0.5zm-33.913,215.313l18.413-13.847v32.271l-20.993-15.995c0.766-0.893 1.626-1.711 2.58-2.429z"></path>{" "}
                    <path d="m305.534,311.093c1.476,1.937 3.71,2.955 5.971,2.955 1.584,0 3.182-0.5 4.54-1.535l16.002-12.192c3.295-2.51 3.931-7.216 1.42-10.511-2.51-3.294-7.215-3.93-10.511-1.42l-16.002,12.192c-3.294,2.51-3.93,7.216-1.42,10.511z"></path>{" "}
                    <path d="m171.5,263c19.907,0 35.5-12.08 35.5-27.5 0-0.85-0.055-1.688-0.148-2.516 0.096-0.48 0.148-0.976 0.148-1.484v-82.343l97-27.714v59.476c-5.756-3.107-12.802-4.919-20.5-4.919-19.907,0-35.5,12.08-35.5,27.5s15.593,27.5 35.5,27.5 35.5-12.08 35.5-27.5c0-0.85-0.055-1.688-0.148-2.516 0.096-0.48 0.148-0.976 0.148-1.484v-98.788c0-7.441-3.407-14.28-9.348-18.761-5.941-4.481-13.45-5.88-20.608-3.835l-74.198,21.2c-13.451,3.843-22.846,16.298-22.846,30.288v83.316c-5.756-3.107-12.802-4.919-20.5-4.919-19.907,0-35.5,12.08-35.5,27.5s15.593,27.499 35.5,27.499zm112-47c-9.696,0-20.5-5.134-20.5-12.5s10.804-12.5 20.5-12.5 20.5,5.134 20.5,12.5-10.804,12.5-20.5,12.5zm-64.533-102.262l74.197-21.2c2.586-0.738 5.305-0.234 7.454,1.387s3.382,4.095 3.382,6.787v5.131l-97,27.714v-3.953c0-7.329 4.921-13.853 11.967-15.866zm-47.467,109.262c9.696,0 20.5,5.134 20.5,12.5s-10.804,12.5-20.5,12.5-20.5-5.134-20.5-12.5 10.804-12.5 20.5-12.5z"></path>{" "}
                  </g>{" "}
                </g>
              </svg>